HIERARCHY
ROOT Hips
{
	OFFSET -3.958830 18.904000 13.208200
	CHANNELS 6 Xposition Yposition Zposition Zrotation Yrotation Xrotation 
	JOINT LHipJoint
	{
		OFFSET 0.000000 0.000000 0.000000
		CHANNELS 3 Zrotation Yrotation Xrotation
		JOINT LeftUpLeg
		{
			OFFSET 1.800000 -1.400000 0.085000
			CHANNELS 3 Zrotation Yrotation Xrotation
			JOINT LeftLeg
			{
				OFFSET 2.215000 -6.000000 0.000000
				CHANNELS 3 Zrotation Yrotation Xrotation
				JOINT LeftFoot
				{
					OFFSET 2.500000 -6.900000 0.000000
					CHANNELS 3 Zrotation Yrotation Xrotation
					JOINT LeftToeBase
					{
						OFFSET 0.200000 -0.500000 1.950000
						CHANNELS 3 Zrotation Yrotation Xrotation
						End Site
						{
							OFFSET 0.000000 0.000000 0.000000
						}
					}
				}
			}
		}
	}
	JOINT RHipJoint
	{
		OFFSET 0.000000 0.000000 0.000000
		CHANNELS 3 Zrotation Yrotation Xrotation
		JOINT RightUpLeg
		{
			OFFSET -1.800000 -1.400000 0.085000
			CHANNELS 3 Zrotation Yrotation Xrotation
			JOINT RightLeg
			{
				OFFSET -2.215000 -6.000000 0.000000
				CHANNELS 3 Zrotation Yrotation Xrotation
				JOINT RightFoot
				{
					OFFSET -2.500000 -6.900000 0.000000
					CHANNELS 3 Zrotation Yrotation Xrotation
					JOINT RightToeBase
					{
						OFFSET -0.200000 -0.500000 1.950000
						CHANNELS 3 Zrotation Yrotation Xrotation
						End Site
						{
							OFFSET 0.000000 0.000000 0.000000
						}
					}
				}
			}
		}
	}
	JOINT LowerBack
	{
		OFFSET 0.000000 0.000000 0.000000
		CHANNELS 3 Zrotation Yrotation Xrotation
		JOINT Spine
		{
			OFFSET -0.087000 1.940000 -0.288900
			CHANNELS 3 Zrotation Yrotation Xrotation
			JOINT Spine1
			{
				OFFSET 0.000000 1.950000 0.060000
				CHANNELS 3 Zrotation Yrotation Xrotation
				JOINT Neck
				{
					OFFSET 0.000000 0.000000 0.000000
					CHANNELS 3 Zrotation Yrotation Xrotation
					JOINT Neck1
					{
						OFFSET 0.000000 1.600000 0.340000
						CHANNELS 3 Zrotation Yrotation Xrotation
						JOINT Head
						{
							OFFSET 0.000000 1.667000 -0.240000
							CHANNELS 3 Zrotation Yrotation Xrotation
							End Site
							{
								OFFSET 0.000000 0.000000 0.000000
							}
						}
					}
				}
				JOINT LeftShoulder
				{
					OFFSET 0.000000 0.000000 0.000000
					CHANNELS 3 Zrotation Yrotation Xrotation
					JOINT LeftArm
					{
						OFFSET 2.700000 1.550000 -0.730000
						CHANNELS 3 Zrotation Yrotation Xrotation
						JOINT LeftForeArm
						{
							OFFSET 5.450000 0.000000 0.000000
							CHANNELS 3 Zrotation Yrotation Xrotation
							JOINT LeftHand
							{
								OFFSET 3.450000 0.000000 0.000000
								CHANNELS 3 Zrotation Yrotation Xrotation
								JOINT LeftHandIndex1
								{
									OFFSET 0.750000 0.000000 0.000000
									CHANNELS 3 Zrotation Yrotation Xrotation
									End Site
									{
										OFFSET 0.000000 0.000000 0.000000
									}
								}
							}
						}
					}
				}
				JOINT RightShoulder
				{
					OFFSET 0.000000 0.000000 0.000000
					CHANNELS 3 Zrotation Yrotation Xrotation
					JOINT RightArm
					{
						OFFSET -2.700000 1.550000 -0.730000
						CHANNELS 3 Zrotation Yrotation Xrotation
						JOINT RightForeArm
						{
							OFFSET -5.450000 0.000000 0.000000
							CHANNELS 3 Zrotation Yrotation Xrotation
							JOINT RightHand
							{
								OFFSET -3.450000 0.000000 0.000000
								CHANNELS 3 Zrotation Yrotation Xrotation
								JOINT RightHandIndex1
								{
									OFFSET -0.750000 0.000000 0.000000
									CHANNELS 3 Zrotation Yrotation Xrotation
									End Site
									{
										OFFSET 0.000000 0.000000 0.000000
									}
								}
							}
						}
					}
				}
			}
		}
	}
}
MOTION
Frames: 12
Frame Time: 0.016667
-0.835040 17.261440 -5.324990 -3.706746 -0.074409 -2.397480 -15.144079 13.179472 2.844707 7.067047 0.298691 -2.907794 -10.207412 6.199375 7.058918 -0.343181 4.858392 3.076017 0.118480 -0.259150 -0.030190 18.324929 -10.837581 2.929714 -1.951287 -0.575878 -3.145221 10.070111 -5.978794 8.071324 -0.501239 -4.107479 3.171919 -0.171440 0.469240 0.290260 -3.670464 -1.406409 -7.329543 7.968049 0.214919 3.125245 -6.270850 0.473940 6.844603 4.527598 0.113040 -11.570002 -2.435968 5.422593 56.830930 1.534130 2.302090 1.167900 -26.013414 -11.297607 4.877192 -45.565317 -1.846300 0.303698 -1.828930 -1.357167 -0.912758 -4.037475 2.690781 0.652510 0.207510 -0.085580 0.173880 17.488426 11.703788 8.354688 45.560220 0.995166 -6.634994 50.087225 42.533281 14.413929 1.986013 -1.484538 -0.251000 0.277830 0.290280 -0.180340 
-0.837070 17.262900 -5.320140 -3.739312 -0.190701 -2.379518 -15.138441 13.168831 2.833299 7.066273 0.300957 -2.923780 -10.206176 6.211715 7.088056 -0.332498 4.871726 3.083324 0.096620 -0.282730 -0.051170 18.335738 -10.838788 2.924284 -1.860785 -0.589898 -3.108341 9.976070 -5.974075 8.108872 -0.492483 -4.120544 3.172441 -0.182950 0.493120 0.292990 -3.692743 -1.388425 -7.300957 8.091699 0.229656 2.855658 -6.370336 0.465295 7.101149 4.514558 0.089373 -11.656744 -2.457354 5.509737 56.327331 1.444920 2.390370 1.813070 -25.552237 -11.504287 5.001527 -45.833014 -2.082050 0.375395 -1.624187 -1.422149 -0.898940 -4.054125 2.695481 0.637490 0.223570 -0.099910 0.179110 17.033443 11.909932 8.474146 46.223307 1.280742 -6.692179 49.647906 43.220069 14.485988 1.984735 -1.489607 -0.256670 0.279750 0.298750 -0.171590 
-0.841690 17.262700 -5.314010 -3.715248 -0.269763 -2.367063 -15.146640 13.171311 2.813695 7.070546 0.305871 -3.042305 -10.219206 6.268184 7.271865 -0.347984 4.922490 3.085447 0.039190 -0.347410 -0.098450 18.335293 -10.827046 2.909430 -1.790868 -0.598253 -3.084535 9.859305 -5.979066 8.199287 -0.460860 -4.137472 3.181519 -0.201170 0.547400 0.279500 -3.679401 -1.419273 -7.251657 8.001722 0.264327 2.520482 -6.162566 0.466040 7.470875 4.375902 -0.099708 -11.681455 -2.886480 5.737854 55.254106 1.366170 2.403660 2.559680 -24.698395 -11.677599 5.032738 -46.559720 -2.860908 0.643274 -1.150827 -1.434969 -0.888313 -4.100960 2.669153 0.624320 0.255850 -0.141920 0.174130 16.478791 12.168880 8.623926 47.154005 1.709787 -6.842883 48.513695 44.474476 14.519934 1.966160 -1.470336 -0.295450 0.308490 0.337190 -0.169020 
-0.849010 17.263250 -5.310080 -3.466550 -0.311580 -2.181875 -15.184409 13.183449 2.801787 6.871005 0.307203 -3.268512 -10.260139 6.306018 7.407838 -0.318807 4.930254 3.109061 0.000110 -0.383310 -0.148930 18.305943 -10.806918 2.876916 -1.856424 -0.556905 -3.339967 9.697676 -5.946393 8.384942 -0.420142 -4.140107 3.200971 -0.219210 0.601940 0.272620 -3.581720 -1.489547 -7.186399 7.240309 0.372834 2.074999 -5.202313 0.480773 7.798048 4.019078 -0.503228 -11.643885 -3.784304 6.012886 53.469553 1.487010 2.202080 3.792490 -23.374448 -11.655143 4.993225 -48.153058 -4.113795 0.935526 -0.665676 -2.100569 -0.873579 -4.131371 2.690781 0.576060 0.290690 -0.188180 0.186930 15.993482 12.467016 8.766416 48.419410 2.145319 -7.149049 45.606743 45.642473 13.786233 1.955008 -1.480149 -0.302200 0.312630 0.349860 -0.144030 
-0.855850 17.255800 -5.310590 -3.455643 -0.140288 -1.792758 -15.210108 13.198821 2.763503 6.828140 0.237917 -3.903700 -10.180964 6.347081 7.779736 -0.291169 4.948684 3.144667 -0.071810 -0.454440 -0.246800 18.292944 -10.773006 2.847727 -1.636391 -0.480220 -3.872421 9.590257 -5.894945 8.604272 -0.349207 -4.149518 3.225323 -0.245690 0.707090 0.271740 -3.528422 -1.584083 -7.090485 6.837937 0.397222 1.559777 -3.840999 0.346560 8.081874 3.345015 -1.176681 -11.320330 -5.127002 6.301774 50.039523 1.730870 1.671200 5.721910 -21.475652 -11.301602 4.783010 -50.741628 -6.096199 1.524458 -0.594360 -3.121049 -0.875979 -4.194656 2.733249 0.492810 0.358440 -0.273520 0.210820 15.516349 12.509115 8.665734 49.736246 2.938320 -7.312573 41.274309 46.206808 12.337372 1.934378 -1.501648 -0.319890 0.319640 0.383000 -0.100200 
-0.861780 17.252560 -5.313500 -3.323581 0.030414 -1.429571 -15.249510 13.220109 2.730836 6.654954 0.174762 -4.498667 -10.046063 6.387197 8.223829 -0.291627 4.986267 3.177206 -0.148240 -0.544150 -0.340200 18.262210 -10.749421 2.814129 -1.601386 -0.365083 -4.487796 9.596444 -5.899276 8.988026 -0.273346 -4.175599 3.244712 -0.271660 0.816740 0.269320 -3.428591 -1.671812 -7.001529 5.930697 0.555859 1.097362 -1.909496 0.318005 8.417396 2.541936 -1.543719 -11.085984 -5.760263 6.103794 46.828364 1.687180 1.137350 7.559570 -19.436480 -11.317032 4.726935 -53.760688 -8.349769 2.331665 -0.771376 -4.554445 -0.918725 -4.259588 2.768049 0.424090 0.432470 -0.368650 0.229560 15.214074 12.760941 8.555683 51.103606 3.854389 -7.587387 35.075103 45.931033 9.926495 1.892307 -1.501978 -0.356370 0.333570 0.426590 -0.072440 
-0.867200 17.249450 -5.319310 -3.206490 0.458097 -1.031243 -15.284553 13.237152 2.694677 6.439416 0.095726 -5.125781 -9.783563 6.389142 8.645941 -0.297293 5.017763 3.221238 -0.233860 -0.641560 -0.438500 18.235714 -10.730402 2.784023 -1.543876 -0.240240 -5.172724 9.650261 -5.911824 9.415514 -0.189757 -4.208884 3.263254 -0.295320 0.941280 0.262920 -3.344175 -1.745595 -6.913697 4.912074 0.733177 0.666924 0.366887 0.273873 8.804981 1.509332 -1.730799 -10.860999 -5.968038 5.517834 43.471575 1.538560 0.448990 9.393480 -17.194335 -11.660929 4.797953 -57.074907 -11.005078 3.486654 -1.361528 -6.254454 -0.947247 -4.329465 2.801593 0.344450 0.517110 -0.474070 0.249220 15.149126 13.188256 8.349127 52.205954 4.993430 -7.630061 27.685787 44.020523 6.862956 1.854245 -1.483205 -0.401500 0.358260 0.473100 -0.041250 
-0.873930 17.254600 -5.330390 -2.937934 0.952462 -0.791333 -15.326606 13.251223 2.673363 6.072374 0.043266 -5.562242 -9.481940 6.359253 8.984555 -0.327894 5.041821 3.250933 -0.298230 -0.716820 -0.504030 18.197615 -10.727121 2.757560 -1.664435 -0.119001 -5.764865 9.664345 -5.929748 9.801813 -0.124372 -4.233776 3.272093 -0.305300 1.033420 0.259880 -3.233095 -1.789132 -6.854320 3.461748 1.043335 0.441736 2.972929 0.335915 9.334447 0.450389 -1.550584 -10.820234 -5.482145 4.594587 41.175347 1.102980 -0.062710 10.276600 -15.177005 -12.659365 5.083205 -60.006733 -13.735077 4.737106 -2.493544 -8.618476 -0.975944 -4.378056 2.826317 0.292920 0.585070 -0.552410 0.255600 15.405380 14.090171 8.207291 52.941779 6.318938 -7.436202 19.664545 40.863392 3.759681 1.814001 -1.432797 -0.445050 0.386370 0.517610 -0.028570 
-0.880020 17.264970 -5.342490 -2.715354 1.315586 -0.585206 -15.344237 13.225742 2.643918 5.671501 -0.000421 -5.915592 -9.057405 6.269473 9.217947 -0.373638 5.026212 3.284182 -0.340750 -0.760130 -0.551810 18.183916 -10.759000 2.744513 -1.796424 -0.012290 -6.297115 9.702006 -5.941083 10.046987 -0.067316 -4.271159 3.278199 -0.298840 1.105760 0.254940 -3.191256 -1.697448 -6.798544 2.226007 1.498957 0.291284 5.360120 0.499451 9.937600 -0.560768 -0.967920 -10.779176 -4.128098 3.453718 39.230712 0.527180 -0.366950 10.764790 -13.365422 -13.857196 5.412040 -62.224252 -16.342620 5.840792 -4.390359 -11.744177 -0.918706 -4.415038 2.859821 0.243670 0.650840 -0.623440 0.256430 15.726808 14.955907 7.939589 53.751892 8.015287 -6.630697 11.891977 36.508557 1.132730 1.780319 -1.391164 -0.480460 0.407420 0.551230 -0.024120 
-0.885130 17.273940 -5.358360 -2.558559 1.341286 -0.311924 -15.335142 13.175467 2.610336 5.222878 -0.070605 -6.405171 -8.612017 6.164083 9.535068 -0.428521 5.007815 3.318743 -0.368990 -0.790840 -0.581410 18.195330 -10.813458 2.741617 -1.949786 0.103315 -6.869457 9.800307 -5.958744 10.218791 -0.028496 -4.306990 3.273851 -0.284060 1.177390 0.267150 -3.221742 -1.521974 -6.747159 1.479114 1.988395 0.244237 7.296835 0.701013 10.570234 -1.467420 -0.380226 -10.778132 -2.709910 2.499393 37.291789 -0.199420 -0.405930 10.743190 -11.653265 -15.078371 5.761422 -64.036130 -18.643441 6.609198 -6.515678 -15.583736 -0.799367 -4.452518 2.897081 0.205520 0.715580 -0.673980 0.264990 15.883109 15.880374 7.606007 54.575105 10.080158 -5.215073 5.390838 31.453205 -0.636771 1.764112 -1.367975 -0.513040 0.436480 0.578800 -0.019720 
-0.889060 17.286180 -5.374210 -2.373233 0.981688 -0.035031 -15.312402 13.111176 2.580884 4.637924 -0.135865 -6.881043 -8.096361 6.031937 9.893562 -0.482909 4.930848 3.358031 -0.350290 -0.760840 -0.574260 18.216633 -10.889871 2.746143 -2.241059 0.221387 -7.471097 10.060226 -6.004579 10.411500 -0.014009 -4.337372 3.267993 -0.247500 1.203830 0.269200 -3.283424 -1.280575 -6.708990 1.015426 2.508233 0.307398 9.011916 0.938200 11.184472 -2.229467 0.043075 -10.864154 -1.591271 1.900355 35.880174 -0.826910 -0.175160 10.123170 -10.298309 -16.131080 6.199095 -65.462380 -20.165472 6.514978 -8.851377 -20.944187 -0.589861 -4.444394 2.950186 0.183240 0.750360 -0.695670 0.276950 16.117055 16.870550 7.222067 54.910011 12.326441 -3.332265 0.923579 26.063576 -1.491982 1.773117 -1.377327 -0.525920 0.457240 0.573910 -0.022680 
-0.895890 17.293570 -5.387950 -2.261754 0.017406 0.342798 -15.280025 13.035941 2.560885 4.161080 -0.216828 -7.452324 -7.779025 5.942239 10.257335 -0.540326 4.860444 3.377976 -0.321950 -0.721080 -0.554020 18.246008 -10.972164 2.756431 -2.403662 0.352460 -8.131973 10.135581 -5.990702 10.545003 -0.004745 -4.335995 3.259744 -0.207280 1.206230 0.276450 -3.363269 -1.007097 -6.682570 0.815212 3.079480 0.431066 10.668990 1.230971 11.711613 -2.917244 0.241197 -10.989217 -0.860698 1.624162 34.541178 -1.509000 0.282100 9.202850 -9.132796 -16.658553 6.667882 -66.858005 -20.886710 5.684964 -11.503426 -27.898772 -0.184350 -4.424418 3.022789 0.174350 0.770780 -0.700440 0.280620 16.400679 17.567050 6.774768 54.879815 14.367398 -1.697866 -1.590521 21.935602 -1.756749 1.785162 -1.404147 -0.532240 0.465950 0.567180 -0.033300 
